<svg id="Layer_1" data-name="Layer 1" xmlns="http://www.w3.org/2000/svg" viewBox="0 0 121 60"><defs><style>.cls-1{fill:#fff;}</style></defs><title>lb brand book</title><g id="_Group_" data-name="&lt;Group&gt;"><path class="cls-1" d="M25.56,57.32A16.08,16.08,0,0,1,1.38,43.43c0-8.87,3.84-15.36,7.66-22.7C14.72,9.8,16.83,5.86,17.36.79a11.42,11.42,0,0,1,2.25,7.65c-.27,3.05-2.24,8.5-4.75,14.51-2,4.84-4.34,9.78-5.54,13.64a16.89,16.89,0,0,0-.52,10,13.83,13.83,0,0,0,1.37,3.51C14.68,58,24.8,57.44,25.58,57.31Z"/></g><g id="_Group_2" data-name="&lt;Group&gt;"><path class="cls-1" d="M25.22,37.4a5.12,5.12,0,0,1,2.37,4.17,5,5,0,0,1-10,0c0-.32.1-1,.1-1,.79-4.07,4.82-11.89,6.06-17C25.06,18.17,21.44,13,21.44,13S22.29,14.9,17,26.7c-2.44,5.47-3.94,9-4.72,11.14a13.38,13.38,0,0,0-.82,4.79,11,11,0,1,0,22,0c0-6-5.21-9.77-8.32-11.63a3.55,3.55,0,0,1-1.84-2.84l-.81,2.56a5.34,5.34,0,0,0,2.28,6.43Z"/></g><g id="_Group_3" data-name="&lt;Group&gt;"><path class="cls-1" d="M42.81,11.69h0a.72.72,0,0,1,.72.72V24.55a1.33,1.33,0,0,0,.33,1,1.28,1.28,0,0,0,1,.35,3.07,3.07,0,0,0,.54-.07h0a.6.6,0,0,1,.72.46h0a.6.6,0,0,1-.44.71,2.59,2.59,0,0,1-.42.09,5.83,5.83,0,0,1-1,.11,2.14,2.14,0,0,1-1.56-.56A2.11,2.11,0,0,1,42.1,25V12.41A.71.71,0,0,1,42.81,11.69Z"/></g><g id="_Group_4" data-name="&lt;Group&gt;"><path class="cls-1" d="M48.8,13.08v-.67a.71.71,0,0,1,.71-.72h0a.72.72,0,0,1,.72.72v.67a.71.71,0,0,1-.72.71h0A.71.71,0,0,1,48.8,13.08Zm0,13.24V16.8a.71.71,0,0,1,.71-.72h0a.72.72,0,0,1,.72.72v9.52a.71.71,0,0,1-.72.71h0A.71.71,0,0,1,48.8,26.32Z"/></g><g id="_Group_5" data-name="&lt;Group&gt;"><path class="cls-1" d="M59.52,26a.59.59,0,0,1-.33.72l-.43.17a5.64,5.64,0,0,1-.71.18,3.86,3.86,0,0,1-.84.09,2.9,2.9,0,0,1-.89-.13,1.91,1.91,0,0,1-.73-.39,1.89,1.89,0,0,1-.51-.66,2.19,2.19,0,0,1-.19-.92V17.22H54a.57.57,0,0,1-.57-.57h0a.57.57,0,0,1,.57-.57h.94v-3a.72.72,0,0,1,.72-.72h0a.71.71,0,0,1,.71.72v3h2a.57.57,0,0,1,.56.57h0a.57.57,0,0,1-.56.57h-2v7.44a1.14,1.14,0,0,0,.43.89,1.48,1.48,0,0,0,.9.28,2.59,2.59,0,0,0,1.07-.2h0a.58.58,0,0,1,.78.35Z"/></g><g id="_Group_6" data-name="&lt;Group&gt;"><path class="cls-1" d="M67.61,26a.59.59,0,0,1-.34.73l-.42.17a5.64,5.64,0,0,1-.71.18,3.86,3.86,0,0,1-.84.09,2.9,2.9,0,0,1-.89-.13,1.91,1.91,0,0,1-.73-.39,1.89,1.89,0,0,1-.51-.66,2.19,2.19,0,0,1-.19-.92V17.22H62a.57.57,0,0,1-.57-.57h0a.57.57,0,0,1,.57-.57H63v-3a.72.72,0,0,1,.72-.72h0a.71.71,0,0,1,.71.72v3h2a.57.57,0,0,1,.56.57h0a.57.57,0,0,1-.56.57h-2v7.44a1.14,1.14,0,0,0,.43.89,1.48,1.48,0,0,0,.9.28,2.59,2.59,0,0,0,1.07-.2h0a.58.58,0,0,1,.78.35Z"/></g><g id="_Group_7" data-name="&lt;Group&gt;"><path class="cls-1" d="M71.39,11.69h0a.71.71,0,0,1,.71.72V24.55a1.34,1.34,0,0,0,.34,1,1.26,1.26,0,0,0,1,.35,3.07,3.07,0,0,0,.54-.07h0a.6.6,0,0,1,.72.46h0a.6.6,0,0,1-.45.71,2.71,2.71,0,0,1-.41.09,5.83,5.83,0,0,1-1,.11,2.14,2.14,0,0,1-1.56-.56A2.08,2.08,0,0,1,70.67,25V12.41A.72.72,0,0,1,71.39,11.69Z"/></g><g id="_Group_8" data-name="&lt;Group&gt;"><path class="cls-1" d="M82.11,27.24a5.31,5.31,0,0,1-2.2-.45,5.23,5.23,0,0,1-1.73-1.24A5.63,5.63,0,0,1,77,23.73a5.93,5.93,0,0,1-.41-2.2A5.87,5.87,0,0,1,77,19.35a5.58,5.58,0,0,1,1.14-1.79,5.34,5.34,0,0,1,1.73-1.21,5.44,5.44,0,0,1,4.38,0A4.52,4.52,0,0,1,86,17.58a4,4,0,0,1,.37.47,2.58,2.58,0,0,1-2.15,4h-6.1a4.83,4.83,0,0,0,.41,1.63,4.27,4.27,0,0,0,.9,1.29,3.8,3.8,0,0,0,1.25.85,3.63,3.63,0,0,0,1.5.31,3.81,3.81,0,0,0,1-.15,4.4,4.4,0,0,0,1-.4A3.37,3.37,0,0,0,85,25a2.79,2.79,0,0,0,.34-.43A.62.62,0,0,1,86,24.3h0a.62.62,0,0,1,.33,1c-.09.12-.18.23-.28.34A4.92,4.92,0,0,1,83.64,27,5.54,5.54,0,0,1,82.11,27.24ZM84.19,21a1.42,1.42,0,0,0,1.23-2.14,3.61,3.61,0,0,0-.57-.72,4.32,4.32,0,0,0-1.24-.82,4,4,0,0,0-1.5-.29,3.9,3.9,0,0,0-2.77,1.11,4.2,4.2,0,0,0-.86,1.26,4.7,4.7,0,0,0-.39,1.6Z"/></g><g id="_Group_9" data-name="&lt;Group&gt;"><path class="cls-1" d="M48.2,47.2a4.49,4.49,0,0,1-2.39-.65,4.77,4.77,0,0,1-1.69-1.68v1.48a.64.64,0,0,1-.64.64h0a.64.64,0,0,1-.64-.64v-14a.71.71,0,0,1,.71-.72h0a.72.72,0,0,1,.72.72v6A6.17,6.17,0,0,1,46,36.54a4.22,4.22,0,0,1,2.4-.68,4.39,4.39,0,0,1,2.07.48,4.72,4.72,0,0,1,1.55,1.29,6,6,0,0,1,1,1.83,6.5,6.5,0,0,1,.35,2.09,6,6,0,0,1-.4,2.19,5.89,5.89,0,0,1-1.09,1.79,5.21,5.21,0,0,1-1.65,1.22A4.76,4.76,0,0,1,48.2,47.2Zm-.34-1.26a3.76,3.76,0,0,0,1.65-.36,4,4,0,0,0,1.28-1,4.55,4.55,0,0,0,.84-1.41,4.37,4.37,0,0,0,.31-1.63,5.16,5.16,0,0,0-.28-1.66,4.83,4.83,0,0,0-.8-1.42,4.11,4.11,0,0,0-1.24-1A3.57,3.57,0,0,0,48,37.12a3.3,3.3,0,0,0-1.22.22,3.66,3.66,0,0,0-1.05.6,4.72,4.72,0,0,0-.86.87,5.54,5.54,0,0,0-.63,1v3.4a2.17,2.17,0,0,0,.45,1.06,4,4,0,0,0,.88.86,5.1,5.1,0,0,0,1.12.56A3.45,3.45,0,0,0,47.86,45.94Z"/></g><g id="_Group_10" data-name="&lt;Group&gt;"><path class="cls-1" d="M62.32,36.69a.66.66,0,0,1-.59.66,4.54,4.54,0,0,0-1.93.75,4.06,4.06,0,0,0-1.52,2.09v6.13a.67.67,0,0,1-.67.67h-.08a.67.67,0,0,1-.67-.67v-9.6a.67.67,0,0,1,.67-.67h0a.67.67,0,0,1,.67.67v2a4.93,4.93,0,0,1,1.64-2A3.61,3.61,0,0,1,61,36.14a3.31,3.31,0,0,1,.6-.11.67.67,0,0,1,.75.66Z"/></g><g id="_Group_11" data-name="&lt;Group&gt;"><path class="cls-1" d="M72.26,45.17a5,5,0,0,1-1.9,1.51,5.88,5.88,0,0,1-2.47.52,3.76,3.76,0,0,1-1.44-.26,3.54,3.54,0,0,1-1.16-.72,3.2,3.2,0,0,1-.76-1.09,3.11,3.11,0,0,1-.28-1.33,2.6,2.6,0,0,1,.34-1.32,3.13,3.13,0,0,1,.94-1A4.53,4.53,0,0,1,67,40.74a6.74,6.74,0,0,1,1.85-.24,10.05,10.05,0,0,1,1.71.15,7.71,7.71,0,0,1,1.53.42v-1a3.16,3.16,0,0,0-.82-2.3A3,3,0,0,0,69,36.93a4.89,4.89,0,0,0-1.72.33,8.13,8.13,0,0,0-1.32.66.52.52,0,0,1-.74-.2h0a.53.53,0,0,1,.19-.7,7,7,0,0,1,3.7-1.16A4.4,4.4,0,0,1,72.32,37a4.26,4.26,0,0,1,1.18,3.2v6.17a.62.62,0,0,1-.62.62h0a.63.63,0,0,1-.63-.63Zm-4,.94a4.91,4.91,0,0,0,2-.42,3.31,3.31,0,0,0,1.42-1.11,1.54,1.54,0,0,0,.29-.41,1.13,1.13,0,0,0,.09-.41V42a9.28,9.28,0,0,0-1.48-.42A8.12,8.12,0,0,0,69,41.4a4.36,4.36,0,0,0-2.46.63,1.93,1.93,0,0,0-.94,1.66,2.31,2.31,0,0,0,.2,1,2.44,2.44,0,0,0,.54.77,2.51,2.51,0,0,0,.83.51A2.77,2.77,0,0,0,68.22,46.11Z"/></g><g id="_Group_12" data-name="&lt;Group&gt;"><path class="cls-1" d="M118.43,45.17a5.1,5.1,0,0,1-1.9,1.51,5.88,5.88,0,0,1-2.47.52,3.76,3.76,0,0,1-1.44-.26,3.54,3.54,0,0,1-1.16-.72,3.2,3.2,0,0,1-.76-1.09,3.11,3.11,0,0,1-.28-1.33,2.6,2.6,0,0,1,.34-1.32,3.13,3.13,0,0,1,.94-1,4.53,4.53,0,0,1,1.45-.69A6.74,6.74,0,0,1,115,40.5a10.05,10.05,0,0,1,1.71.15,7.71,7.71,0,0,1,1.53.42v-1a3.16,3.16,0,0,0-.82-2.3,3,3,0,0,0-2.27-.85,4.89,4.89,0,0,0-1.72.33,8.13,8.13,0,0,0-1.32.66.52.52,0,0,1-.74-.2h0a.53.53,0,0,1,.19-.7,7,7,0,0,1,3.7-1.16A4.4,4.4,0,0,1,118.49,37a4.26,4.26,0,0,1,1.18,3.2v6.17a.62.62,0,0,1-.62.62h0a.63.63,0,0,1-.63-.63Zm-4,.94a4.91,4.91,0,0,0,2-.42,3.31,3.31,0,0,0,1.42-1.11,1.54,1.54,0,0,0,.29-.41,1.13,1.13,0,0,0,.09-.41V42a9.28,9.28,0,0,0-1.48-.42,8.19,8.19,0,0,0-1.57-.15,4.36,4.36,0,0,0-2.46.63,1.93,1.93,0,0,0-.94,1.66,2.16,2.16,0,0,0,.2,1,2.44,2.44,0,0,0,.54.77,2.51,2.51,0,0,0,.83.51A2.77,2.77,0,0,0,114.39,46.11Z"/></g><g id="_Group_13" data-name="&lt;Group&gt;"><path class="cls-1" d="M86.13,47h0a.71.71,0,0,1-.72-.71v-5.4a4.93,4.93,0,0,0-.64-2.8,2.14,2.14,0,0,0-1.88-.92,3.26,3.26,0,0,0-1.21.24,4.58,4.58,0,0,0-1.12.66,4.53,4.53,0,0,0-.91,1,4,4,0,0,0-.58,1.24v6a.71.71,0,0,1-.72.71h0a.71.71,0,0,1-.71-.71V32.37a.71.71,0,0,1,.71-.72h0a.72.72,0,0,1,.72.72v6.16a4.89,4.89,0,0,1,1.81-2,4.62,4.62,0,0,1,2.5-.71A3.34,3.34,0,0,1,85,36.2a3,3,0,0,1,1.08,1,4.09,4.09,0,0,1,.6,1.49,8.8,8.8,0,0,1,.19,1.92v5.7A.71.71,0,0,1,86.13,47Z"/></g><g id="_Group_14" data-name="&lt;Group&gt;"><path class="cls-1" d="M106.51,47h0a.71.71,0,0,1-.71-.71v-5.4a5.11,5.11,0,0,0-.61-2.82,2,2,0,0,0-1.81-.9,3.19,3.19,0,0,0-1.19.23,3.46,3.46,0,0,0-1,.65,4.33,4.33,0,0,0-.84,1,5,5,0,0,0-.54,1.27v6a.71.71,0,0,1-.72.71h0a.71.71,0,0,1-.71-.71v-5.4A5.3,5.3,0,0,0,97.77,38,2,2,0,0,0,96,37.16a3.23,3.23,0,0,0-2.2.86,4.78,4.78,0,0,0-1.39,2.27v6a.71.71,0,0,1-.71.71h0a.71.71,0,0,1-.72-.71V36.7a.65.65,0,0,1,.65-.65h0a.65.65,0,0,1,.65.65v1.83a5.14,5.14,0,0,1,1.77-2,4.36,4.36,0,0,1,2.42-.7,3.13,3.13,0,0,1,2.21.77,3.33,3.33,0,0,1,1,2,4.68,4.68,0,0,1,4.23-2.81,3.39,3.39,0,0,1,1.56.33,2.72,2.72,0,0,1,1,1,4.45,4.45,0,0,1,.57,1.49,9.63,9.63,0,0,1,.18,1.94v5.7A.71.71,0,0,1,106.51,47Z"/></g><g id="_Group_15" data-name="&lt;Group&gt;"><path class="cls-1" d="M43.19,58a.2.2,0,0,1-.06-.15V52a.21.21,0,0,1,.06-.16.2.2,0,0,1,.15-.06h2a2.7,2.7,0,0,1,2,.61A2.62,2.62,0,0,1,48,54.18c0,.18,0,.41,0,.71s0,.53,0,.71A3.56,3.56,0,0,1,47.69,57a1.64,1.64,0,0,1-.81.79,3.32,3.32,0,0,1-1.46.26H43.34A.2.2,0,0,1,43.19,58Zm2.19-.71a2.4,2.4,0,0,0,1-.17,1.11,1.11,0,0,0,.54-.55,2.63,2.63,0,0,0,.18-1c0-.36,0-.58,0-.67s0-.32,0-.67a1.49,1.49,0,0,0-1.75-1.71H44v4.77Z"/><path class="cls-1" d="M50.06,57.56A2.3,2.3,0,0,1,49.45,56v-.6a2.42,2.42,0,0,1,.61-1.55,2,2,0,0,1,1.47-.57,1.93,1.93,0,0,1,1.54.63,2.49,2.49,0,0,1,.55,1.71v.16a.18.18,0,0,1-.2.2H50.3v.08a1.69,1.69,0,0,0,.36,1,1.07,1.07,0,0,0,.87.41,1.29,1.29,0,0,0,.68-.17A1.49,1.49,0,0,0,52.6,57a.45.45,0,0,1,.12-.14l.15,0h.44a.19.19,0,0,1,.13.05.14.14,0,0,1,.06.12.82.82,0,0,1-.25.48,1.92,1.92,0,0,1-.69.48,2.38,2.38,0,0,1-1,.2A2,2,0,0,1,50.06,57.56Zm2.71-2.2v0a1.48,1.48,0,0,0-.34-1,1.23,1.23,0,0,0-1.8,0,1.53,1.53,0,0,0-.33,1v0Z"/><path class="cls-1" d="M55.72,57.93a1.73,1.73,0,0,1-.64-.46.83.83,0,0,1-.22-.43.17.17,0,0,1,.07-.14.2.2,0,0,1,.14,0h.41a.21.21,0,0,1,.16.09,1.55,1.55,0,0,0,.47.39,1.3,1.3,0,0,0,.67.15,1.34,1.34,0,0,0,.76-.19.56.56,0,0,0,.29-.51.51.51,0,0,0-.12-.35,1,1,0,0,0-.41-.24,6.78,6.78,0,0,0-.87-.23,2.3,2.3,0,0,1-1.11-.5,1.11,1.11,0,0,1-.33-.84,1.23,1.23,0,0,1,.2-.65,1.58,1.58,0,0,1,.6-.5,2.07,2.07,0,0,1,.94-.19,2.42,2.42,0,0,1,1,.18,1.76,1.76,0,0,1,.61.45.77.77,0,0,1,.2.43.16.16,0,0,1-.06.13.2.2,0,0,1-.14.06h-.38a.23.23,0,0,1-.18-.09,2.45,2.45,0,0,0-.24-.27,1,1,0,0,0-.3-.17,1.64,1.64,0,0,0-.49-.07,1,1,0,0,0-.67.19.59.59,0,0,0-.23.48.51.51,0,0,0,.1.32,1,1,0,0,0,.38.24,6.84,6.84,0,0,0,.82.22,2.45,2.45,0,0,1,1.21.52,1.12,1.12,0,0,1,.36.86,1.17,1.17,0,0,1-.23.7,1.47,1.47,0,0,1-.66.49,2.73,2.73,0,0,1-1,.18A2.34,2.34,0,0,1,55.72,57.93Z"/><path class="cls-1" d="M60.18,52.43a.2.2,0,0,1-.06-.15V51.8a.2.2,0,0,1,.06-.15.18.18,0,0,1,.15-.07h.57a.19.19,0,0,1,.15.07.2.2,0,0,1,.06.15v.48a.2.2,0,0,1-.06.15.22.22,0,0,1-.15.06h-.57A.2.2,0,0,1,60.18,52.43ZM60.25,58a.2.2,0,0,1-.06-.15V53.57a.21.21,0,0,1,.21-.21h.43a.21.21,0,0,1,.21.21v4.27A.2.2,0,0,1,61,58a.2.2,0,0,1-.15,0H60.4A.2.2,0,0,1,60.25,58Z"/><path class="cls-1" d="M63.55,59.78a1.73,1.73,0,0,1-.64-.57,1.35,1.35,0,0,1-.21-.56.25.25,0,0,1,.06-.16.24.24,0,0,1,.15-.06h.43a.21.21,0,0,1,.14,0,.49.49,0,0,1,.09.15,1.23,1.23,0,0,0,.35.5,1.2,1.2,0,0,0,.77.21,1.42,1.42,0,0,0,1-.28A1.33,1.33,0,0,0,66,58v-.61a1.68,1.68,0,0,1-.59.47,1.91,1.91,0,0,1-.86.18,1.69,1.69,0,0,1-1.43-.61,2.6,2.6,0,0,1-.5-1.54v-.5a2.58,2.58,0,0,1,.51-1.54,1.68,1.68,0,0,1,1.42-.61A1.77,1.77,0,0,1,66,54v-.39a.25.25,0,0,1,0-.15.21.21,0,0,1,.15-.07h.42a.21.21,0,0,1,.15.07.2.2,0,0,1,.06.15V58A1.85,1.85,0,0,1,64.74,60,2.53,2.53,0,0,1,63.55,59.78ZM65.65,57A1.7,1.7,0,0,0,66,56c0-.05,0-.16,0-.31s0-.25,0-.31a1.67,1.67,0,0,0-.34-1,1.11,1.11,0,0,0-.93-.41,1.09,1.09,0,0,0-.93.4,1.88,1.88,0,0,0-.31,1v.48a1.91,1.91,0,0,0,.31,1,1.07,1.07,0,0,0,.93.4A1.1,1.1,0,0,0,65.65,57Z"/><path class="cls-1" d="M68.7,58a.2.2,0,0,1-.06-.15V53.57a.21.21,0,0,1,.21-.21h.42a.21.21,0,0,1,.21.21V54a1.7,1.7,0,0,1,1.5-.69,1.69,1.69,0,0,1,1.35.55,2.17,2.17,0,0,1,.48,1.47v2.54a.2.2,0,0,1-.06.15.2.2,0,0,1-.15,0h-.45A.16.16,0,0,1,72,58a.2.2,0,0,1-.06-.15v-2.5a1.5,1.5,0,0,0-.31-1,1.32,1.32,0,0,0-1.8,0,1.38,1.38,0,0,0-.33,1v2.5a.2.2,0,0,1-.06.15.2.2,0,0,1-.15,0h-.45A.2.2,0,0,1,68.7,58Z"/><path class="cls-1" d="M77.69,58a1.53,1.53,0,0,1-.6-.49,1.11,1.11,0,0,1-.22-.68,1.17,1.17,0,0,1,.49-1,2.73,2.73,0,0,1,1.33-.5L80,55.11v-.26c0-.61-.35-.92-1-.92a1.16,1.16,0,0,0-.65.17,1.08,1.08,0,0,0-.38.39.35.35,0,0,1-.07.12.16.16,0,0,1-.11,0h-.39a.2.2,0,0,1-.14-.06.16.16,0,0,1,0-.14.92.92,0,0,1,.2-.49,1.55,1.55,0,0,1,.6-.47,2.15,2.15,0,0,1,1-.2,1.86,1.86,0,0,1,1.44.47,1.61,1.61,0,0,1,.44,1.17v2.92a.18.18,0,0,1-.2.2h-.42a.16.16,0,0,1-.14,0,.2.2,0,0,1-.06-.15v-.39a1.78,1.78,0,0,1-.58.49,2.08,2.08,0,0,1-1,.19A1.86,1.86,0,0,1,77.69,58Zm2-.87A1.58,1.58,0,0,0,80,56v-.25l-1,.16a2.47,2.47,0,0,0-1,.3.63.63,0,0,0-.32.53.65.65,0,0,0,.29.56,1.28,1.28,0,0,0,.71.19A1.3,1.3,0,0,0,79.66,57.08Z"/><path class="cls-1" d="M83,57.59a2.22,2.22,0,0,1-.58-1.53v-.72A2.21,2.21,0,0,1,83,53.82a2.07,2.07,0,0,1,1.51-.54,2.32,2.32,0,0,1,1.1.23,1.74,1.74,0,0,1,.67.57,1.37,1.37,0,0,1,.24.69.14.14,0,0,1-.06.14.2.2,0,0,1-.15.06h-.43a.26.26,0,0,1-.14,0,.33.33,0,0,1-.09-.14,1.13,1.13,0,0,0-.43-.62,1.25,1.25,0,0,0-.7-.18,1.18,1.18,0,0,0-.89.34,1.6,1.6,0,0,0-.35,1.06V56a1.58,1.58,0,0,0,.35,1.06,1.15,1.15,0,0,0,.89.34,1.25,1.25,0,0,0,.7-.18,1.13,1.13,0,0,0,.43-.62.49.49,0,0,1,.09-.15.26.26,0,0,1,.14,0h.43a.2.2,0,0,1,.15.06.17.17,0,0,1,.06.15,1.37,1.37,0,0,1-.24.68,1.76,1.76,0,0,1-.67.58,2.27,2.27,0,0,1-1.1.23A2.07,2.07,0,0,1,83,57.59Z"/><path class="cls-1" d="M88.53,58a1.4,1.4,0,0,1-.6-.49,1.11,1.11,0,0,1-.22-.68,1.17,1.17,0,0,1,.49-1,2.69,2.69,0,0,1,1.32-.5l1.34-.19v-.26c0-.61-.35-.92-1-.92a1.18,1.18,0,0,0-.65.17,1.14,1.14,0,0,0-.37.39.63.63,0,0,1-.07.12.2.2,0,0,1-.11,0h-.39a.18.18,0,0,1-.14-.06.17.17,0,0,1-.06-.14,1,1,0,0,1,.2-.49,1.55,1.55,0,0,1,.6-.47,2.15,2.15,0,0,1,1-.2,1.89,1.89,0,0,1,1.45.47,1.65,1.65,0,0,1,.44,1.17v2.92a.2.2,0,0,1-.06.15.2.2,0,0,1-.15,0h-.41a.2.2,0,0,1-.15,0,.2.2,0,0,1-.06-.15v-.39a1.64,1.64,0,0,1-.57.49,2.15,2.15,0,0,1-1,.19A1.85,1.85,0,0,1,88.53,58Zm2-.87A1.54,1.54,0,0,0,90.86,56v-.25l-1,.16a2.36,2.36,0,0,0-1,.3.62.62,0,0,0-.33.53.63.63,0,0,0,.3.56,1.25,1.25,0,0,0,.7.19A1.3,1.3,0,0,0,90.49,57.08Z"/><path class="cls-1" d="M93.75,57.52a2.63,2.63,0,0,1-.5-1.55v-.54a2.65,2.65,0,0,1,.5-1.54,1.68,1.68,0,0,1,1.42-.61,1.75,1.75,0,0,1,1.45.65V51.86a.21.21,0,0,1,.21-.21h.43a.21.21,0,0,1,.21.21v6a.2.2,0,0,1-.06.15.2.2,0,0,1-.15,0h-.4a.2.2,0,0,1-.15,0,.2.2,0,0,1-.06-.15v-.38a1.76,1.76,0,0,1-1.48.67A1.68,1.68,0,0,1,93.75,57.52ZM96.29,57a1.72,1.72,0,0,0,.33-1,6,6,0,0,0,0-.69,1.45,1.45,0,0,0-.34-.93,1.12,1.12,0,0,0-.92-.4,1.11,1.11,0,0,0-.94.4,1.81,1.81,0,0,0-.31,1v.26q0,1.71,1.26,1.71A1.11,1.11,0,0,0,96.29,57Z"/><path class="cls-1" d="M99.65,57.56a2.3,2.3,0,0,1-.6-1.56v-.6a2.37,2.37,0,0,1,.61-1.55,2.19,2.19,0,0,1,3,.06,2.49,2.49,0,0,1,.55,1.71v.16a.2.2,0,0,1-.06.15.25.25,0,0,1-.15,0H99.9v.08a1.69,1.69,0,0,0,.36,1,1.05,1.05,0,0,0,.86.41,1.24,1.24,0,0,0,.68-.17,1.4,1.4,0,0,0,.4-.34.45.45,0,0,1,.12-.14.4.4,0,0,1,.15,0h.44a.19.19,0,0,1,.13.05.14.14,0,0,1,.06.12.82.82,0,0,1-.25.48,2,2,0,0,1-.69.48,2.4,2.4,0,0,1-1,.2A2,2,0,0,1,99.65,57.56Zm2.72-2.2v0a1.53,1.53,0,0,0-.34-1,1.15,1.15,0,0,0-.91-.39,1.11,1.11,0,0,0-.89.39,1.53,1.53,0,0,0-.33,1v0Z"/><path class="cls-1" d="M104.81,58a.2.2,0,0,1-.06-.15V53.57a.21.21,0,0,1,.21-.21h.4a.21.21,0,0,1,.21.21v.32a1.55,1.55,0,0,1,1.31-.61,1.45,1.45,0,0,1,1.41.82,1.6,1.6,0,0,1,.61-.6,1.75,1.75,0,0,1,.89-.22,1.56,1.56,0,0,1,1.21.5,2.07,2.07,0,0,1,.47,1.46v2.6a.2.2,0,0,1-.06.15.2.2,0,0,1-.15,0h-.42a.2.2,0,0,1-.15,0,.2.2,0,0,1-.06-.15V55.32a1.45,1.45,0,0,0-.29-1,1.06,1.06,0,0,0-.77-.31,1,1,0,0,0-.73.31,1.39,1.39,0,0,0-.31,1v2.52a.2.2,0,0,1-.06.15.2.2,0,0,1-.15,0h-.42a.18.18,0,0,1-.2-.2V55.32a1.4,1.4,0,0,0-.31-1,1,1,0,0,0-1.49,0,1.41,1.41,0,0,0-.3,1v2.53a.2.2,0,0,1-.06.15.2.2,0,0,1-.15,0H105A.2.2,0,0,1,104.81,58Z"/><path class="cls-1" d="M113.75,59.7a.21.21,0,0,1,0-.13.41.41,0,0,1,0-.16l.7-1.64-1.72-4.06a.64.64,0,0,1,0-.16.21.21,0,0,1,.19-.19h.44a.24.24,0,0,1,.22.16l1.37,3.27,1.4-3.27a.24.24,0,0,1,.22-.16h.43a.16.16,0,0,1,.13.06.16.16,0,0,1,.06.12,1,1,0,0,1,0,.17l-2.55,5.89a.25.25,0,0,1-.23.15h-.42A.17.17,0,0,1,113.75,59.7Z"/></g></svg>